<?xml version="1.0" encoding="UTF-8" standalone="no"?><!DOCTYPE svg PUBLIC "-//W3C//DTD SVG 1.1//EN"
    "http://www.w3.org/Graphics/SVG/1.1/DTD/svg11.dtd"><!-- Created with Vectornator (http://vectornator.io/) -->
<svg height="100%" stroke-miterlimit="10"
    style="fill-rule:nonzero;clip-rule:evenodd;stroke-linecap:round;stroke-linejoin:round;"
    version="1.1" viewBox="0 0 841.995 595.35" width="100%" xml:space="preserve"
    xmlns="http://www.w3.org/2000/svg" xmlns:vectornator="http://vectornator.io"
    xmlns:xlink="http://www.w3.org/1999/xlink">
<defs />
    <g id="Ebene-2" vectornator:layerName="Ebene 2">
<g opacity="1">
<path
    d="M431.438 223.25C423.327 223.73 415.049 226.136 407.75 228.625C405.25 229.477 402.756 230.39 400.281 231.312C396.349 232.778 392.48 234.365 388.656 236.094C371.748 243.739 355.802 253.874 341.938 266.219C337.77 269.929 333.811 273.801 330.031 277.906C328.323 279.761 326.621 281.642 325.062 283.625C323.896 285.109 322.741 286.685 321.781 288.312C321.134 289.41 320.59 290.59 320 291.719C319.108 293.426 318.209 295.124 317.281 296.812C315.363 300.304 313.371 303.737 311.938 307.469C307.92 317.928 306.65 329.334 307.469 340.469C308.133 349.5 310.526 358.186 313.812 366.594C319.678 379.901 335.224 385.928 348.531 380.062C361.839 374.197 367.865 358.651 362 345.344C359.881 341.256 358.187 337.04 357.312 332.5C356.469 328.12 356.504 323.623 356.688 319.188C356.779 316.982 356.707 314.717 357.062 312.531C357.389 310.523 358.167 308.871 358.875 307C359.31 305.85 359.647 304.615 360 303.438C360.758 300.911 361.467 298.371 362.5 295.938C368.498 281.811 378.078 269.484 388.969 258.781C394.876 252.976 401.21 247.573 407.969 242.781C409.912 241.404 411.886 240.09 413.875 238.781C423.629 232.362 435.877 225.48 448 227.562C450.146 227.931 452.163 228.605 454.156 229.469C447.491 224.221 439.548 222.77 431.438 223.25Z"
    fill="#c9dc6a" stroke="none" />
</g>
        <g opacity="1">
<path
    d="M521.562 247.031C523.117 249.104 524.933 250.992 526.406 253.125C527.437 254.618 528.255 256.274 528.969 257.938C534.437 270.695 532.048 285.2 529.656 298.375C528.732 303.463 527.588 308.493 526.062 313.438C520.419 331.73 510.206 348.963 496.969 362.781C490.973 369.04 484.42 375.034 476.938 379.469C473.598 381.448 470.147 383.281 466.75 385.156C461.956 387.803 457.07 390.242 452.156 392.656C450.591 393.425 449.117 394.38 447.469 394.969C443.904 396.241 440.187 396.605 436.438 396.844C428.851 397.326 420.624 396.818 414.875 391.219C413.192 389.579 411.974 387.683 410.812 385.656C402.921 373.441 386.622 369.921 374.406 377.812C362.191 385.704 358.702 402.003 366.594 414.219C371.063 420.699 376.245 426.529 382.5 431.344C398.918 443.981 420.739 448.093 440.812 443.438C445.245 442.409 449.505 440.921 453.656 439.062C456.455 437.81 459.167 436.37 461.875 434.938C465.474 433.033 469.098 431.087 472.5 428.844C479.318 424.348 484.743 418.037 490.656 412.469C495.577 407.835 500.444 403.064 504.75 397.844C511.158 390.075 516.67 381.594 521.469 372.75C531.183 354.846 537.5 335.357 539.531 315.062C540.227 308.111 540.29 301.167 540.125 294.188C539.83 281.699 538.612 268.402 531.75 257.594C530.528 255.668 529.16 253.791 527.531 252.188C525.662 250.347 523.502 248.796 521.562 247.031Z"
    fill="#c9dc6a" stroke="none" />
</g>
        <g opacity="1">
<path
    d="M474.406 183.562C465.955 183.735 457.746 187.96 452.812 195.594C446.029 206.091 447.716 219.553 456.062 228.156C456.512 229.245 456.915 230.349 457.438 231.406C458.831 234.225 460.518 236.919 462.062 239.656C464.441 243.871 466.726 248.138 468.625 252.594C471.799 260.041 473.554 268.062 474.969 276C475.637 279.749 476.45 283.559 476.625 287.375C476.7 289.004 476.732 290.684 476.625 292.312C476.518 293.933 476.212 295.545 476.031 297.156C475.852 298.754 475.744 300.339 475.562 301.938C475.148 305.596 474.705 309.261 473.688 312.812C472.988 315.255 472.157 317.678 471.125 320C470.514 321.374 469.757 322.668 469.062 324C468.769 324.563 468.454 325.127 468.219 325.719C468.098 326.023 468.229 326.112 467.969 326.531C467.293 327.62 466.425 328.597 465.625 329.594C465.019 330.348 464.506 331.134 463.844 331.844C460.1 335.856 455.423 339.114 450.656 341.781C446.994 343.83 443.091 345.562 438.969 346.438C437.124 346.829 435.248 346.961 433.375 347.156C431.949 347.305 430.434 347.538 429 347.344C425.297 346.842 421.577 345.513 418.25 343.844C404.831 337.113 396.836 323.09 395.344 308.438C394.904 304.12 395.009 299.733 395.625 295.438C395.966 293.062 396.475 290.715 397 288.375C398.463 281.856 400.172 274.857 404.625 269.656C406.524 267.438 408.874 265.677 411.5 264.406C413.868 263.26 416.401 262.535 418.969 262C415.086 262.164 411.234 262.814 407.688 264.469C398.827 268.602 394.508 277.899 391.031 286.5C389.829 289.474 388.657 292.473 387.781 295.562C382.205 315.234 386.821 337.314 400.75 352.469C404.459 356.504 408.764 360 413.469 362.812C417.366 365.142 421.639 367.244 426.062 368.344C429.076 369.093 432.167 369.297 435.25 369.531C437.574 369.708 439.887 369.812 442.219 369.719C447.7 369.5 453.143 368.482 458.406 366.969C466.773 364.563 474.931 360.956 482.188 356.125C484.195 354.789 486.025 353.29 487.875 351.75C489.651 350.272 491.435 348.8 493.031 347.125C494.416 345.672 495.607 344.059 496.906 342.531C498.56 340.587 500.186 338.63 501.688 336.562C508.113 327.714 513.137 317.625 516.188 307.125C517.112 303.942 517.599 300.704 518.125 297.438C518.579 294.618 519.006 291.791 519.438 288.969C520.226 283.811 520.9 278.629 521.031 273.406C521.223 265.785 520.586 258.067 519.25 250.562C517.588 241.226 514.648 232.177 511 223.438C509.674 220.26 508.206 217.152 506.688 214.062C505.929 212.519 505.066 210.995 504.406 209.406C504.254 209.04 504.428 209.096 504.344 208.719C504.187 208.019 503.988 207.311 503.781 206.625C503.28 204.96 502.694 203.349 501.938 201.781C499.092 195.883 494.577 191.388 489.219 187.75C484.638 184.79 479.477 183.459 474.406 183.562Z"
    fill="#c9dc6a" stroke="none" />
</g>
</g>
    <g id="Ebene-1" vectornator:layerName="Ebene 1">
<path d="M326.514 263.812C324.984 260.752 394.323 263.674 399.368 261.152" fill="none" opacity="1"
    stroke="#000000" stroke-linecap="round" stroke-linejoin="round" stroke-width="10.4094" />
        <path d="M363.693 277.337C342.846 339.878 398.377 467.832 398.377 277.337" fill="none"
            opacity="1" stroke="#000000" stroke-linecap="round" stroke-linejoin="round"
            stroke-width="10.4094" />
        <path d="M414.857 217.487C414.857 239.632 409.551 417.004 418.764 412.397" fill="none"
            opacity="1" stroke="#000000" stroke-linecap="round" stroke-linejoin="round"
            stroke-width="10.4094" />
        <path
            d="M465.921 260.494C443.101 237.674 404.711 357.629 447.924 391.297C453.235 395.434 459.889 395.612 463.591 388.208"
            fill="none" opacity="1" stroke="#000000" stroke-linecap="round" stroke-linejoin="round"
            stroke-width="10.4094" />
        <path d="M451.33 204.709C482.01 221.092 463.507 374.306 463.507 403.697" fill="none"
            opacity="1" stroke="#000000" stroke-linecap="round" stroke-linejoin="round"
            stroke-width="10.4094" />
        <path
            d="M476.662 220.192C483.099 209.465 509.849 248.146 516.329 265.428C533.206 310.433 519.195 356.399 488.986 386.607"
            fill="none" opacity="1" stroke="#000000" stroke-linecap="round" stroke-linejoin="round"
            stroke-width="10.4094" />
        <path d="M517.262 268.224C517.262 256.639 451.195 332.42 501.104 371.693" fill="none"
            opacity="1" stroke="#000000" stroke-linecap="round" stroke-linejoin="round"
            stroke-width="10.4094" />
        <path d="M416.272 197.995C299.738 202.212 268.688 378.163 398.256 409.98" fill="none"
            opacity="1" stroke="#000000" stroke-linecap="round" stroke-linejoin="round"
            stroke-width="10.4094" />
</g>
    <g id="Ebene-4" vectornator:layerName="Ebene 4" visibility="hidden">
<path
    d="M430.898 192.626C432.952 192.352 436.363 189.658 437.708 187.636C438.152 186.968 439.135 184.435 437.68 184.375C434.483 184.242 433.377 193.496 437.393 193.663C441.749 193.844 442.238 186.382 445.334 184.645C445.901 184.327 445.067 186.143 444.896 186.88C444.705 187.704 443.312 192.811 443.875 193.069C445.941 194.019 451.374 183.573 453.413 183.974C454.766 184.24 451.281 193.211 453.471 193.42C456.885 193.746 461.119 184.134 463.122 181.453C463.946 180.35 464.614 179.279 465.354 178.094C465.699 177.544 465.847 176.94 466.047 176.302C466.077 176.207 466.166 175.923 466.136 176.018C464.827 180.197 457.956 187.333 461.499 192.076C463.946 195.351 467.66 186.472 468.913 185.577C470.078 184.744 471.264 184.141 472.624 184.197C473.156 184.219 474.611 185.111 474.114 184.882C473.483 184.592 473.156 183.786 472.324 183.897C470.314 184.165 465.989 190.63 467.765 193.007C468.585 194.104 470.589 192.352 471.273 191.859C474.17 189.772 476.097 185.664 477.493 182.05C478.036 180.647 478.578 179.144 479.216 177.808C479.405 177.411 480.077 176.742 479.731 176.583C479.476 176.465 478.166 179.953 478.072 180.205C477.275 182.321 473.667 190.107 476.367 191.927C478.795 193.563 483.141 189.494 484.253 187.269C484.654 186.466 485.62 183.931 484.607 183.209C481.977 181.337 479.157 189.802 482.097 191.638C485.837 193.972 488.558 189.33 491.053 186.497C491.809 185.638 493.823 183.132 495.005 183.929C495.293 184.123 495.959 184.821 495.63 184.865C493.972 185.087 492.919 182.948 491.212 186.408C490.219 188.419 489.618 194.109 492.936 193.047C496.53 191.896 500.382 184.809 502.198 181.064C502.358 180.733 503.955 176.187 504.213 176.306C504.287 176.339 502.63 180.522 502.516 180.885C501.671 183.584 500.707 186.243 499.867 188.924C499.789 189.174 498.865 192.304 499.188 192.348C499.922 192.448 501.04 190.153 501.472 189.662C503.433 187.435 505.674 185.622 507.631 183.399C507.795 183.213 507.313 183.784 507.18 184.003C506.807 184.615 506.437 185.003 506.028 185.585C504.862 187.247 502.75 189.575 504.593 191.422C507.775 194.61 511.428 189.513 513.555 187.096C514.087 186.493 515.991 184.236 515.145 183.279C512.614 180.419 506.966 193.847 514.744 192.515C515.411 192.4 515.883 192.137 516.52 191.869C517.362 191.516 518.293 191.226 519.091 190.778"
    fill="none" opacity="1" stroke="#000000" stroke-linecap="round" stroke-linejoin="round"
    stroke-width="1.34844" />
        <path d="M457.092 181.442C458.742 181.835 466.645 182.168 468.305 181.237" fill="none"
            opacity="1" stroke="#000000" stroke-linecap="round" stroke-linejoin="round"
            stroke-width="1.34844" />
</g>
    <g id="Ebene-3" vectornator:layerName="Ebene 3" visibility="hidden">
<path
    d="M313.929 305.991C313.929 246.572 361.516 198.403 420.218 198.403C478.92 198.403 526.507 246.572 526.507 305.991C526.507 365.41 478.92 413.579 420.218 413.579C361.516 413.579 313.929 365.41 313.929 305.991Z"
    fill="none" opacity="1" stroke="#000000" stroke-linecap="butt" stroke-linejoin="round"
    stroke-width="10.4094" />
</g>
</svg>
